<svg width="32" height="32" viewBox="0 0 32 32" fill="none" xmlns="http://www.w3.org/2000/svg">
<g clip-path="url(#clip0_1139_7777)">
<mask id="mask0_1139_7777" style="mask-type:luminance" maskUnits="userSpaceOnUse" x="0" y="0" width="32" height="32">
<path d="M31.6004 0.400024H0.400391V31.6H31.6004V0.400024Z" fill="white"/>
</mask>
<g mask="url(#mask0_1139_7777)">
<path d="M18.2344 2.62757C18.2344 1.39733 17.2371 0.400024 16.0068 0.400024C14.7766 0.400024 13.7793 1.39733 13.7793 2.62757C13.7793 3.85782 14.7766 4.85512 16.0068 4.85512C17.2371 4.85512 18.2344 3.85782 18.2344 2.62757Z" fill="#8F8F8F"/>
<path d="M24.9141 9.31117C24.9141 8.08093 23.9168 7.08362 22.6865 7.08362C21.4563 7.08362 20.459 8.08093 20.459 9.31117C20.459 10.5414 21.4563 11.5387 22.6865 11.5387C23.9168 11.5387 24.9141 10.5414 24.9141 9.31117Z" fill="#0041FD"/>
<path d="M18.2344 9.31117C18.2344 8.08093 17.2371 7.08362 16.0068 7.08362C14.7766 7.08362 13.7793 8.08093 13.7793 9.31117C13.7793 10.5414 14.7766 11.5387 16.0068 11.5387C17.2371 11.5387 18.2344 10.5414 18.2344 9.31117Z" fill="#0041FD"/>
<path d="M11.5508 9.31117C11.5508 8.08093 10.5535 7.08362 9.32325 7.08362C8.09301 7.08362 7.0957 8.08093 7.0957 9.31117C7.0957 10.5414 8.09301 11.5387 9.32325 11.5387C10.5535 11.5387 11.5508 10.5414 11.5508 9.31117Z" fill="#0041FD"/>
<path d="M31.5977 15.9928C31.5977 14.7626 30.6004 13.7653 29.3701 13.7653C28.1399 13.7653 27.1426 14.7626 27.1426 15.9928C27.1426 17.2231 28.1399 18.2204 29.3701 18.2204C30.6004 18.2204 31.5977 17.2231 31.5977 15.9928Z" fill="#8F8F8F"/>
<path d="M24.9141 15.9928C24.9141 14.7626 23.9168 13.7653 22.6865 13.7653C21.4563 13.7653 20.459 14.7626 20.459 15.9928C20.459 17.2231 21.4563 18.2204 22.6865 18.2204C23.9168 18.2204 24.9141 17.2231 24.9141 15.9928Z" fill="#0041FD"/>
<path d="M18.2344 15.9928C18.2344 14.7626 17.2371 13.7653 16.0068 13.7653C14.7766 13.7653 13.7793 14.7626 13.7793 15.9928C13.7793 17.2231 14.7766 18.2204 16.0068 18.2204C17.2371 18.2204 18.2344 17.2231 18.2344 15.9928Z" fill="#8F8F8F"/>
<path d="M11.5508 15.9928C11.5508 14.7626 10.5535 13.7653 9.32325 13.7653C8.09301 13.7653 7.0957 14.7626 7.0957 15.9928C7.0957 17.2231 8.09301 18.2204 9.32325 18.2204C10.5535 18.2204 11.5508 17.2231 11.5508 15.9928Z" fill="#0041FD"/>
<path d="M4.86721 15.9928C4.86721 14.7626 3.8699 13.7653 2.63966 13.7653C1.40942 13.7653 0.412109 14.7626 0.412109 15.9928C0.412109 17.2231 1.40942 18.2204 2.63966 18.2204C3.8699 18.2204 4.86721 17.2231 4.86721 15.9928Z" fill="#8F8F8F"/>
<path d="M24.9141 22.6764C24.9141 21.4462 23.9168 20.4489 22.6865 20.4489C21.4563 20.4489 20.459 21.4462 20.459 22.6764C20.459 23.9066 21.4563 24.904 22.6865 24.904C23.9168 24.904 24.9141 23.9066 24.9141 22.6764Z" fill="#0041FD"/>
<path d="M18.2344 22.6764C18.2344 21.4462 17.2371 20.4489 16.0068 20.4489C14.7766 20.4489 13.7793 21.4462 13.7793 22.6764C13.7793 23.9066 14.7766 24.904 16.0068 24.904C17.2371 24.904 18.2344 23.9066 18.2344 22.6764Z" fill="#0041FD"/>
<path d="M11.5508 22.6764C11.5508 21.4462 10.5535 20.4489 9.32325 20.4489C8.09301 20.4489 7.0957 21.4462 7.0957 22.6764C7.0957 23.9066 8.09301 24.904 9.32325 24.904C10.5535 24.904 11.5508 23.9066 11.5508 22.6764Z" fill="#0041FD"/>
<path d="M18.2344 29.358C18.2344 28.1278 17.2371 27.1305 16.0068 27.1305C14.7766 27.1305 13.7793 28.1278 13.7793 29.358C13.7793 30.5883 14.7766 31.5856 16.0068 31.5856C17.2371 31.5856 18.2344 30.5883 18.2344 29.358Z" fill="#8F8F8F"/>
</g>
</g>
<defs>
<clipPath id="clip0_1139_7777">
<rect width="31.2" height="31.2" fill="white" transform="translate(0.400391 0.400024)"/>
</clipPath>
</defs>
</svg>
