<svg width="188" height="48" viewBox="0 0 188 48" fill="none" xmlns="http://www.w3.org/2000/svg">
<g clip-path="url(#clip0_38_165)">
<mask id="mask0_38_165" style="mask-type:luminance" maskUnits="userSpaceOnUse" x="0" y="0" width="48" height="48">
<path d="M48 0H0V48H48V0Z" fill="white"/>
</mask>
<g mask="url(#mask0_38_165)">
<path d="M27.436 3.427C27.436 1.53432 25.9017 0 24.009 0C22.1164 0 20.582 1.53432 20.582 3.427C20.582 5.31968 22.1164 6.854 24.009 6.854C25.9017 6.854 27.436 5.31968 27.436 3.427Z" fill="#8F8F8F"/>
<path d="M37.7173 13.7083C37.7173 11.8156 36.183 10.2812 34.2903 10.2812C32.3976 10.2812 30.8633 11.8156 30.8633 13.7083C30.8633 15.6009 32.3976 17.1353 34.2903 17.1353C36.183 17.1353 37.7173 15.6009 37.7173 13.7083Z" fill="#0041FD"/>
<path d="M27.436 13.7083C27.436 11.8156 25.9017 10.2812 24.009 10.2812C22.1164 10.2812 20.582 11.8156 20.582 13.7083C20.582 15.6009 22.1164 17.1353 24.009 17.1353C25.9017 17.1353 27.436 15.6009 27.436 13.7083Z" fill="#0041FD"/>
<path d="M17.1548 13.7083C17.1548 11.8156 15.6205 10.2812 13.7278 10.2812C11.8351 10.2812 10.3008 11.8156 10.3008 13.7083C10.3008 15.6009 11.8351 17.1353 13.7278 17.1353C15.6205 17.1353 17.1548 15.6009 17.1548 13.7083Z" fill="#0041FD"/>
<path d="M47.9985 23.9895C47.9985 22.0968 46.4642 20.5625 44.5715 20.5625C42.6789 20.5625 41.1445 22.0968 41.1445 23.9895C41.1445 25.8822 42.6789 27.4165 44.5715 27.4165C46.4642 27.4165 47.9985 25.8822 47.9985 23.9895Z" fill="#8F8F8F"/>
<path d="M37.7173 23.9895C37.7173 22.0968 36.183 20.5625 34.2903 20.5625C32.3976 20.5625 30.8633 22.0968 30.8633 23.9895C30.8633 25.8822 32.3976 27.4165 34.2903 27.4165C36.183 27.4165 37.7173 25.8822 37.7173 23.9895Z" fill="#0041FD"/>
<path d="M27.436 23.9895C27.436 22.0968 25.9017 20.5625 24.009 20.5625C22.1164 20.5625 20.582 22.0968 20.582 23.9895C20.582 25.8822 22.1164 27.4165 24.009 27.4165C25.9017 27.4165 27.436 25.8822 27.436 23.9895Z" fill="#8F8F8F"/>
<path d="M17.1548 23.9895C17.1548 22.0968 15.6205 20.5625 13.7278 20.5625C11.8351 20.5625 10.3008 22.0968 10.3008 23.9895C10.3008 25.8822 11.8351 27.4165 13.7278 27.4165C15.6205 27.4165 17.1548 25.8822 17.1548 23.9895Z" fill="#0041FD"/>
<path d="M6.87353 23.9895C6.87353 22.0968 5.33921 20.5625 3.44653 20.5625C1.55385 20.5625 0.0195312 22.0968 0.0195312 23.9895C0.0195312 25.8822 1.55385 27.4165 3.44653 27.4165C5.33921 27.4165 6.87353 25.8822 6.87353 23.9895Z" fill="#8F8F8F"/>
<path d="M37.7173 34.2708C37.7173 32.3781 36.183 30.8438 34.2903 30.8438C32.3976 30.8438 30.8633 32.3781 30.8633 34.2708C30.8633 36.1634 32.3976 37.6978 34.2903 37.6978C36.183 37.6978 37.7173 36.1634 37.7173 34.2708Z" fill="#0041FD"/>
<path d="M27.436 34.2708C27.436 32.3781 25.9017 30.8438 24.009 30.8438C22.1164 30.8438 20.582 32.3781 20.582 34.2708C20.582 36.1634 22.1164 37.6978 24.009 37.6978C25.9017 37.6978 27.436 36.1634 27.436 34.2708Z" fill="#0041FD"/>
<path d="M17.1548 34.2708C17.1548 32.3781 15.6205 30.8438 13.7278 30.8438C11.8351 30.8438 10.3008 32.3781 10.3008 34.2708C10.3008 36.1634 11.8351 37.6978 13.7278 37.6978C15.6205 37.6978 17.1548 36.1634 17.1548 34.2708Z" fill="#0041FD"/>
<path d="M27.436 44.552C27.436 42.6593 25.9017 41.125 24.009 41.125C22.1164 41.125 20.582 42.6593 20.582 44.552C20.582 46.4447 22.1164 47.979 24.009 47.979C25.9017 47.979 27.436 46.4447 27.436 44.552Z" fill="#8F8F8F"/>
</g>
</g>
<g clip-path="url(#clip1_38_165)">
<mask id="mask1_38_165" style="mask-type:luminance" maskUnits="userSpaceOnUse" x="59" y="9" width="129" height="30">
<path d="M187.199 8.99997H59.199V39H187.199V8.99997Z" fill="white"/>
</mask>
<g mask="url(#mask1_38_165)">
<path d="M59.1987 18.1236H62.017V12.573H63.8301V18.1236H67.5175V19.78H63.8301V27.8647C63.7656 28.5503 63.9422 29.2369 64.3292 29.8059C64.4791 29.9874 64.6677 30.1329 64.881 30.2319C65.0944 30.3308 65.3272 30.3806 65.5622 30.3777C65.9371 30.4022 66.3109 30.3155 66.6367 30.1283C66.7907 30.0326 66.935 29.9223 67.0677 29.7989L67.9191 31.1989C67.7842 31.3092 67.64 31.4076 67.4881 31.493C67.2053 31.6561 66.903 31.783 66.5886 31.8706C66.154 31.991 65.7042 32.0477 65.2534 32.0389C64.4005 32.0596 63.5739 31.7425 62.9529 31.1565C62.3266 30.5683 62.0135 29.6287 62.0135 28.3377V19.78H59.1951L59.1987 18.1236ZM76.872 17.7283C77.7304 17.7308 78.5783 17.9182 79.3581 18.2777C80.1786 18.6528 80.8735 19.2574 81.3591 20.0189C81.9188 20.9517 82.1913 22.0292 82.1424 23.1165V31.6459H80.2869V23.5565C80.2869 22.0349 79.9366 20.9412 79.2359 20.2753C78.8739 19.9394 78.4493 19.6781 77.9865 19.5066C77.5237 19.335 77.0317 19.2564 76.5385 19.2753C75.7883 19.2812 75.0552 19.5007 74.4248 19.9083C73.7367 20.3398 73.162 20.9305 72.749 21.6306C72.3072 22.3693 72.0795 23.2166 72.0914 24.0777V31.6459H70.2207V8.98239H72.0908V20.7377C72.2269 20.2458 72.495 19.8006 72.8659 19.4506C73.3564 18.9453 73.9351 18.5343 74.5733 18.2377C75.2898 17.894 76.0754 17.7197 76.8697 17.7283H76.872ZM90.0056 29.8671L94.9893 18.1236H96.8776L87.8542 38.4977H85.9612L89.005 31.6459L83.4717 18.1236H85.3882L90.0056 29.8671ZM103.487 31.6459H99.3466V18.1236H103.487V20.3118H103.404C103.553 19.9398 103.77 19.599 104.044 19.3071C104.449 18.8551 104.936 18.4842 105.479 18.2142C106.172 17.872 106.938 17.7052 107.711 17.7283C108.287 17.7207 108.861 17.813 109.406 18.0012C109.797 18.1237 110.166 18.3063 110.501 18.5424L108.86 21.94C108.632 21.7057 108.357 21.5208 108.055 21.3965C107.6 21.1982 107.106 21.1034 106.61 21.1189C105.982 21.0972 105.367 21.3008 104.876 21.693C104.421 22.0634 104.063 22.539 103.832 23.0789C103.614 23.5582 103.496 24.077 103.484 24.6036L103.487 31.6459ZM114.895 25.8277C114.915 26.3981 115.083 26.9533 115.382 27.4394C115.69 27.9251 116.132 28.3112 116.654 28.5512C117.285 28.8349 117.972 28.9721 118.664 28.9524C119.295 28.9629 119.923 28.8762 120.528 28.6953C121.012 28.5491 121.473 28.3357 121.899 28.0612C122.216 27.8613 122.501 27.6151 122.745 27.3306L124.496 29.94C124.149 30.3533 123.737 30.7072 123.277 30.9877C122.676 31.3453 122.022 31.6036 121.339 31.7524C120.371 31.9617 119.382 32.0577 118.392 32.0383C117.038 32.0683 115.697 31.7698 114.483 31.1683C113.38 30.6058 112.466 29.732 111.853 28.6547C111.196 27.4544 110.87 26.1007 110.908 24.7324C110.889 23.4922 111.179 22.2668 111.75 21.1665C112.309 20.1106 113.158 19.2381 114.198 18.653C115.383 18.0082 116.716 17.6891 118.064 17.7283C119.343 17.6965 120.61 17.9763 121.757 18.5436C122.785 19.0731 123.628 19.9031 124.175 20.9236C124.778 22.1088 125.072 23.4275 125.03 24.7571C125.03 24.8449 125.027 25.024 125.022 25.2942C125.024 25.4729 125.011 25.6515 124.981 25.8277H114.895ZM121.039 23.2394C121.017 22.8447 120.909 22.4596 120.723 22.1112C120.507 21.6956 120.185 21.3447 119.79 21.0942C119.288 20.7929 118.709 20.6468 118.125 20.6742C117.526 20.6506 116.932 20.79 116.405 21.0777C115.987 21.3145 115.638 21.6565 115.392 22.07C115.179 22.427 115.046 22.826 115.001 23.2394H121.039ZM138.449 31.6459V29.2789C138.262 29.663 138.009 30.012 137.704 30.3106C137.232 30.8025 136.677 31.2078 136.066 31.5083C135.313 31.8787 134.482 32.0616 133.644 32.0412C132.439 32.0623 131.252 31.7392 130.223 31.1094C129.225 30.4885 128.413 29.6078 127.875 28.5612C127.295 27.4271 127.003 26.1672 127.025 24.893C127.003 23.6188 127.295 22.3588 127.875 21.2247C128.414 20.1768 129.226 19.2938 130.223 18.6683C131.25 18.0331 132.437 17.7064 133.644 17.7271C134.452 17.7082 135.255 17.8635 135.999 18.1824C136.594 18.4389 137.141 18.7971 137.615 19.2412C137.951 19.5412 138.222 19.9071 138.412 20.3165V18.1212H142.533V31.6459H138.449ZM131.103 24.893C131.088 25.5962 131.265 26.29 131.615 26.9C131.938 27.461 132.404 27.9262 132.965 28.2483C133.519 28.5668 134.147 28.7325 134.786 28.7283C135.437 28.7403 136.079 28.5717 136.641 28.2412C137.182 27.9158 137.624 27.4478 137.917 26.8883C138.237 26.2735 138.397 25.5883 138.384 24.8953C138.397 24.2024 138.237 23.5172 137.917 22.9024C137.623 22.3407 137.182 21.8695 136.641 21.5389C136.081 21.2032 135.438 21.0316 134.786 21.0436C134.146 21.0396 133.517 21.2082 132.965 21.5318C132.405 21.8585 131.94 22.3261 131.615 22.8883C131.266 23.4976 131.089 24.1906 131.103 24.893ZM149.831 31.6459H145.662V8.98239H149.831V31.6459ZM152.973 31.6459V18.1236H157.116V31.6459H152.973ZM155.094 14.613C154.772 14.6185 154.452 14.5571 154.154 14.4328C153.857 14.3085 153.588 14.1239 153.366 13.8906C153.137 13.6667 152.956 13.3986 152.833 13.1026C152.711 12.8065 152.65 12.4887 152.654 12.1683C152.65 11.8451 152.712 11.5246 152.834 11.2258C152.957 10.927 153.139 10.6561 153.369 10.4294C153.59 10.1943 153.858 10.0079 154.155 9.88192C154.452 9.75594 154.772 9.6932 155.094 9.69769C155.528 9.69351 155.955 9.80997 156.327 10.0342C156.696 10.2537 157.006 10.5593 157.231 10.9247C157.462 11.298 157.581 11.7294 157.575 12.1683C157.579 12.4901 157.516 12.8091 157.391 13.1055C157.265 13.4018 157.08 13.6691 156.847 13.8906C156.619 14.124 156.346 14.3084 156.045 14.4326C155.744 14.5567 155.42 14.6181 155.094 14.613ZM159.791 18.1236H162.227V12.573H166.332V18.1236H169.542V21.5871H166.333V26.5024C166.304 27.0265 166.414 27.5491 166.653 28.0165C166.753 28.1884 166.898 28.3292 167.073 28.4233C167.248 28.5174 167.446 28.561 167.644 28.5494C167.94 28.5623 168.233 28.4905 168.49 28.3424C168.629 28.2619 168.76 28.1681 168.882 28.0624L170.359 31.0436C170.159 31.1821 169.945 31.2981 169.72 31.3894C169.284 31.5807 168.831 31.7308 168.367 31.8377C167.757 31.9802 167.131 32.0485 166.504 32.0412C165.385 32.0816 164.292 31.6981 163.442 30.9671C162.634 30.251 162.229 29.1361 162.229 27.6224V21.5871H159.794L159.791 18.1236ZM178.794 27.9894L182.799 18.1236H186.899L177.686 38.4977H173.517L176.617 31.6459L171.006 18.1236H175.17L178.794 27.9894Z" fill="white"/>
</g>
</g>
<defs>
<clipPath id="clip0_38_165">
<rect width="48" height="48" fill="white"/>
</clipPath>
<clipPath id="clip1_38_165">
<rect width="128" height="30" fill="white" transform="translate(59.199 8.99997)"/>
</clipPath>
</defs>
</svg>
